<svg xmlns="http://www.w3.org/2000/svg" viewBox="0 0 680 540" font-family="-apple-system,Segoe UI,Roboto,Microsoft YaHei,sans-serif">
  <rect width="680" height="540" fill="#ffffff"/>
  <text x="340" y="34" font-size="18" font-weight="700" fill="#111827" text-anchor="middle">发布质量门禁 · 安全稳定性实测</text>
  <text x="340" y="56" font-size="13" fill="#6b7280" text-anchor="middle">综合 4.86/5 · 本地闭环 · 零真实凭据 · 可重跑</text>
  <polygon points="340.0,232.0 369.7,246.3 377.0,278.5 356.5,304.2 323.5,304.2 303.0,278.5 310.3,246.3" fill="none" stroke="#d0d7e2" stroke-width="1"/><polygon points="340.0,194.0 399.4,222.6 414.1,286.9 373.0,338.5 307.0,338.5 265.9,286.9 280.6,222.6" fill="none" stroke="#d0d7e2" stroke-width="1"/><polygon points="340.0,156.0 429.1,198.9 451.1,295.4 389.5,372.7 290.5,372.7 228.9,295.4 250.9,198.9" fill="none" stroke="#d0d7e2" stroke-width="1"/><polygon points="340.0,118.0 458.8,175.2 488.2,303.8 406.0,406.9 274.0,406.9 191.8,303.8 221.2,175.2" fill="none" stroke="#d0d7e2" stroke-width="1"/><polygon points="340.0,80.0 488.5,151.5 525.2,312.3 422.4,441.2 257.6,441.2 154.8,312.3 191.5,151.5" fill="none" stroke="#d0d7e2" stroke-width="1"/>
  <line x1="340" y1="270" x2="340.0" y2="80.0" stroke="#d0d7e2" stroke-width="1"/><line x1="340" y1="270" x2="488.5" y2="151.5" stroke="#d0d7e2" stroke-width="1"/><line x1="340" y1="270" x2="525.2" y2="312.3" stroke="#d0d7e2" stroke-width="1"/><line x1="340" y1="270" x2="422.4" y2="441.2" stroke="#d0d7e2" stroke-width="1"/><line x1="340" y1="270" x2="257.6" y2="441.2" stroke="#d0d7e2" stroke-width="1"/><line x1="340" y1="270" x2="154.8" y2="312.3" stroke="#d0d7e2" stroke-width="1"/><line x1="340" y1="270" x2="191.5" y2="151.5" stroke="#d0d7e2" stroke-width="1"/>
  <polygon points="340.0,137.0 444.0,187.1 469.7,299.6 397.7,389.8 282.3,389.8 210.3,299.6 236.0,187.1" fill="rgba(154,167,184,0.15)" stroke="#9aa7b8" stroke-width="1.5" stroke-dasharray="5 4"/><polygon points="340.0,99.0 473.7,163.4 506.7,308.1 414.2,424.1 265.8,424.1 173.3,308.1 206.3,163.4" fill="rgba(59,130,246,0.12)" stroke="#3b82f6" stroke-width="1.5" stroke-dasharray="5 4"/><polygon points="340.0,80.0 488.5,151.5 525.2,312.3 422.4,441.2 257.6,441.2 154.8,312.3 221.2,175.2" fill="rgba(22,163,74,0.28)" stroke="#16a34a" stroke-width="2.5" />
  <text x="340.0" y="52.0" font-size="13" fill="#1f2d3d" text-anchor="middle" dominant-baseline="middle">敏感信息零泄露</text><text x="510.4" y="134.1" font-size="13" fill="#1f2d3d" text-anchor="start" dominant-baseline="middle">本地闭环无外联</text><text x="552.5" y="318.5" font-size="13" fill="#1f2d3d" text-anchor="start" dominant-baseline="middle">最小权限</text><text x="434.6" y="466.4" font-size="13" fill="#1f2d3d" text-anchor="start" dominant-baseline="middle">无隐藏行为</text><text x="245.4" y="466.4" font-size="13" fill="#1f2d3d" text-anchor="end" dominant-baseline="middle">边界诚实</text><text x="127.5" y="318.5" font-size="13" fill="#1f2d3d" text-anchor="end" dominant-baseline="middle">可复跑稳定性</text><text x="169.6" y="134.1" font-size="13" fill="#1f2d3d" text-anchor="end" dominant-baseline="middle">输入容错</text>
  <rect x="40" y="492" width="14" height="14" fill="rgba(22,163,74,0.5)" stroke="#16a34a"/><text x="60" y="504" font-size="13" fill="#1f2d3d">本工具实测</text><rect x="190" y="492" width="14" height="14" fill="rgba(59,130,246,0.25)" stroke="#3b82f6"/><text x="210" y="504" font-size="13" fill="#1f2d3d">企业级标准(参考)</text><rect x="380" y="492" width="14" height="14" fill="rgba(154,167,184,0.3)" stroke="#9aa7b8"/><text x="400" y="504" font-size="13" fill="#1f2d3d">行业基线(参考)</text>
</svg>